<?xml version="1.0" encoding="utf-8"?>
<!-- Generator: Adobe Illustrator 25.0.1, SVG Export Plug-In . SVG Version: 6.00 Build 0)  -->
<svg version="1.1" id="Layer_2" xmlns="http://www.w3.org/2000/svg" xmlns:xlink="http://www.w3.org/1999/xlink" x="0px" y="0px"
	 viewBox="0 0 50 80" style="enable-background:new 0 0 50 80;" xml:space="preserve">
<style type="text/css">
	.st0{fill:#2A3C47;}
	.st1{fill:none;stroke:#FFFFFF;stroke-width:6;stroke-miterlimit:10;}
	.st2{fill:none;stroke:#07746B;stroke-width:8;stroke-miterlimit:10;}
</style>
<rect x="-156" y="-141" class="st0" width="362" height="362"/>
<g>
	<path class="st1" d="M21.49-20.65v47.2c0,9.66,3.79,19.03,10.86,25.62c4.88,4.55,11.72,8.23,21.09,8.37s16.26-3.23,21.21-7.51
		c7.2-6.21,11.11-15.41,11.11-24.91v-48.77"/>
	<path class="st1" d="M30.65-20.65l-0.41,47.97c-0.04,5.28,1.55,10.47,4.72,14.69c3.54,4.71,9.38,9.48,18.53,9.62
		c6.38,0.1,11.18-2.04,14.73-4.86c5.67-4.51,8.83-11.47,8.89-18.71l0.41-48.71"/>
	<path class="st1" d="M38.73-20.65l0.11,48.12c0.01,3.32,1.03,6.57,3.01,9.24c2.26,3.04,6.01,6.13,11.91,6.22
		c4.01,0.06,7.05-1.26,9.3-3.01c3.74-2.91,5.78-7.5,5.77-12.24l-0.11-48.33"/>
</g>
<g>
	<path class="st1" d="M98.45,60.55v-78.94h37.88c5.68,0,11.26,1.78,15.72,5.29c4.31,3.4,8.23,8.81,8.23,17.27
		c0,4.84-1.06,8.74-2.64,11.87c-3.73,7.36-11.49,11.81-19.75,11.81h-16.7"/>
	<path class="st1" d="M107.66,60.55v-70.7h27.24c0,0,16.74-0.03,16.74,14.5c0,15.6-15.17,15.15-15.17,15.15h-15.25"/>
	<path class="st1" d="M116.3,60.55V-1.29h19.76c0,0,7.12-0.01,7.12,6.17c0,6.63-6.45,6.44-6.45,6.44h-15.4"/>
</g>
<g>
	<path class="st2" d="M-40.7,221l0-174.31c-45.75,30.35-84.62,31.84-86.46,31.89"/>
	<path class="st2" d="M-128.56,34.71c0.37-0.02,47.54-2.98,94.25-49.91L3.19-52.89l0,273.89"/>
	<path class="st2" d="M-29.73,221V25c-50.12,40.72-95.61,42.55-97.75,42.61"/>
	<path class="st2" d="M-128.16,45.67c0.51-0.02,51.2-2.47,101.62-53.14l18.75-18.84V221"/>
	<path class="st2" d="M-127.79,56.64c0,0,54.52-1.58,109.04-56.36V221"/>
</g>
</svg>
